<svg id="Layer_1" data-name="Layer 1" xmlns="http://www.w3.org/2000/svg" viewBox="0 0 200 200"><path d="M24.23,139.21H15V60.61h9.23Zm54.71,0H69.75V102.08H57.51v37.13H28.44V60.61H57.51V93.77H69.75V60.61h9.19Zm33.33,0H83.14V60.61h29.13Z"/><path d="M162.86,80.26a21,21,0,0,1-2.73,9.61l-26.06,49.34H123.89q7.83-14.62,15.78-29.26,13.91-26.31,13.91-29.6A10.45,10.45,0,0,0,150,72.43a12.41,12.41,0,0,0-8.76-3.33A11.88,11.88,0,0,0,131.06,74l-7.56-4.81q6.47-8.39,17.74-8.39A22,22,0,0,1,156.5,66.5,17.86,17.86,0,0,1,162.86,80.26ZM182,139.39h-24.2l.1-.18H138.66l25.2-47.78A24.06,24.06,0,0,0,167,80.26a21.39,21.39,0,0,0-3.18-11.21,23.4,23.4,0,0,0-8.87-8.44h24.29A36,36,0,0,1,185,80.26a38,38,0,0,1-4.88,18.18q-4.4,8.18-17.16,32.64h19Z"/><path d="M100,4.47l96,48v95.06l-96,48-96-48V52.47l96-48M100,0,0,50V150l100,50,100-50V50L100,0Z"/></svg>